<?xml version="1.0" encoding="utf-8"?>
<!-- Generator: Adobe Illustrator 19.0.0, SVG Export Plug-In . SVG Version: 6.00 Build 0)  -->
<svg version="1.1" xmlns="http://www.w3.org/2000/svg" xmlns:xlink="http://www.w3.org/1999/xlink" x="0px" y="0px"
	 viewBox="0 0 55.5 51.3" style="enable-background:new 0 0 55.5 51.3;" xml:space="preserve">
<style type="text/css">
	.st0{fill:none;stroke:#62AD00;stroke-width:2;stroke-linecap:round;stroke-linejoin:round;stroke-miterlimit:10;}
</style>
<g id="Calque_1">
</g>
<g id="Calque_2">
	<g id="XMLID_11_">
		<path id="XMLID_146_" class="st0" d="M11.6,19l-4.3-0.7c-1-0.2-1.7-1-1.7-2V12l4.6,1.5c0.8,0.3,1.4,1,1.4,1.9V19z"/>
		<path id="XMLID_145_" class="st0" d="M11.6,28l-4.3-0.7c-1-0.2-1.7-1-1.7-2V21l4.6,1.5c0.8,0.3,1.4,1,1.4,1.9V28z"/>
		<path id="XMLID_144_" class="st0" d="M11.6,37l-4.3-0.7c-1-0.2-1.7-1-1.7-2V30l4.6,1.5c0.8,0.3,1.4,1,1.4,1.9V37z"/>
		<path id="XMLID_143_" class="st0" d="M19.6,19l4.3-0.7c1-0.2,1.7-1,1.7-2V12L21,13.5c-0.8,0.3-1.4,1-1.4,1.9V19z"/>
		<path id="XMLID_142_" class="st0" d="M19.6,28l4.3-0.7c1-0.2,1.7-1,1.7-2V21L21,22.5c-0.8,0.3-1.4,1-1.4,1.9V28z"/>
		<path id="XMLID_141_" class="st0" d="M19.6,37l4.3-0.7c1-0.2,1.7-1,1.7-2V30L21,31.5c-0.8,0.3-1.4,1-1.4,1.9V37z"/>
		<line id="XMLID_140_" class="st0" x1="15.6" y1="15" x2="15.6" y2="49"/>
		<path id="XMLID_139_" class="st0" d="M18.6,8c0,1.7-1.3,3-3,3c-1.7,0-3-1.3-3-3c0-1.7,3-5,3-5S18.6,6.3,18.6,8z"/>
		<path id="XMLID_126_" class="st0" d="M37.6,31l-4.3-0.7c-1-0.2-1.7-1-1.7-2V24l4.6,1.5c0.8,0.3,1.4,1,1.4,1.9V31z"/>
		<path id="XMLID_74_" class="st0" d="M37.6,40l-4.3-0.7c-1-0.2-1.7-1-1.7-2V33l4.6,1.5c0.8,0.3,1.4,1,1.4,1.9V40z"/>
		<path id="XMLID_73_" class="st0" d="M45.6,31l4.3-0.7c1-0.2,1.7-1,1.7-2V24L47,25.5c-0.8,0.3-1.4,1-1.4,1.9V31z"/>
		<path id="XMLID_72_" class="st0" d="M45.6,40l4.3-0.7c1-0.2,1.7-1,1.7-2V33L47,34.5c-0.8,0.3-1.4,1-1.4,1.9V40z"/>
		<line id="XMLID_13_" class="st0" x1="41.6" y1="27" x2="41.6" y2="49"/>
		<path id="XMLID_12_" class="st0" d="M44.6,20c0,1.7-1.3,3-3,3c-1.7,0-3-1.3-3-3c0-1.7,3-5,3-5S44.6,18.3,44.6,20z"/>
	</g>
</g>
</svg>
