<svg xmlns="http://www.w3.org/2000/svg"
	 viewBox="0 0 50.6 50.4">
<style type="text/css">
	.st0{fill:none;stroke:#62AD00;stroke-width:2;stroke-linecap:round;stroke-linejoin:round;stroke-miterlimit:10;}
</style>
<g id="Calque_1">
</g>
<g id="Calque_2">
	<g id="XMLID_9_">
		<line id="XMLID_74_" class="st0" x1="39.1" y1="38.4" x2="39.1" y2="48.4"/>
		<polyline id="XMLID_73_" class="st0" points="36.1,35.4 39.1,38.4 42.1,35.4 		"/>
		<line id="XMLID_72_" class="st0" x1="23.1" y1="40.4" x2="23.1" y2="48.4"/>
		<polyline id="XMLID_13_" class="st0" points="20.1,37.4 23.1,40.4 26.1,37.4 		"/>
		<circle id="XMLID_12_" class="st0" cx="23.1" cy="31.4" r="13"/>
		<polyline id="XMLID_11_" class="st0" points="30.1,42.3 30.1,42.4 48.1,42.4 39.1,6.4 34.4,25 		"/>
		<path id="XMLID_10_" class="st0" d="M21.1,8.4c-0.4,0-0.7,0.1-1,0.2c0-0.1,0-0.1,0-0.2c0-3.3-2.7-6-6-6c-2.8,0-5.2,2-5.8,4.6
			C7.6,6.6,6.9,6.4,6.1,6.4c-2.2,0-4,1.8-4,4s1.8,4,4,4h15c1.7,0,3-1.3,3-3C24.1,9.7,22.7,8.4,21.1,8.4z"/>
	</g>
</g>
</svg>
