<?xml version="1.0" encoding="utf-8"?>
<!-- Generator: Adobe Illustrator 19.0.0, SVG Export Plug-In . SVG Version: 6.00 Build 0)  -->
<svg version="1.1" xmlns="http://www.w3.org/2000/svg" xmlns:xlink="http://www.w3.org/1999/xlink" x="0px" y="0px"
	 viewBox="0 0 55.9 49.1" style="enable-background:new 0 0 55.9 49.1;" xml:space="preserve">
<style type="text/css">
	.st0{fill:#37A5A2;}
	.st1{fill:none;stroke:#37A5A2;stroke-linecap:round;stroke-linejoin:round;stroke-miterlimit:10;}
</style>
<g id="Calque_1">
</g>
<g id="Calque_2">
	<g id="XMLID_254_">
		<path id="XMLID_356_" class="st0" d="M28.4,2.8l24.6,9.8l-24.5,9.7L4.5,12.7L28.4,2.8 M28.4,1.8c-0.1,0-0.3,0-0.4,0.1l-24,9.8
			c-0.4,0.2-0.6,0.5-0.6,0.9c0,0.4,0.2,0.8,0.6,0.9l24.1,9.7c0.1,0,0.2,0.1,0.4,0.1c0.1,0,0.2,0,0.4-0.1l24.5-9.7
			c0.4-0.2,0.6-0.5,0.6-0.9c0-0.4-0.2-0.8-0.6-0.9L28.8,1.9C28.7,1.9,28.6,1.8,28.4,1.8L28.4,1.8z"/>
	</g>
	<path id="XMLID_126_" class="st1" d="M13.2,16.9v8.5c0,0,3.2,6.5,15.3,6.3c0,0,14.1-0.5,15.3-6.5v-8.2"/>
	<polyline id="XMLID_73_" class="st1" points="28.5,12.7 17.5,18.4 17.5,32.6 	"/>
	<circle id="XMLID_72_" class="st1" cx="17.5" cy="35.5" r="2.5"/>
	<path id="XMLID_13_" class="st1" d="M16.2,37.7l-2,7.7c0,0,3.4,3.8,6.6,0l-2.1-7.7"/>
</g>
</svg>
