<?xml version="1.0" encoding="utf-8"?>
<!-- Generator: Adobe Illustrator 19.0.0, SVG Export Plug-In . SVG Version: 6.00 Build 0)  -->
<svg version="1.1" xmlns="http://www.w3.org/2000/svg" xmlns:xlink="http://www.w3.org/1999/xlink" x="0px" y="0px"
	 viewBox="0 0 55.9 49.1" style="enable-background:new 0 0 55.9 49.1;" xml:space="preserve">
<style type="text/css">
	.st0{display:none;}
	.st1{display:inline;}
	.st2{fill:#37A5A2;}
	.st3{display:inline;fill:none;stroke:#37A5A2;stroke-linecap:round;stroke-linejoin:round;stroke-miterlimit:10;}
	.st4{display:inline;fill:none;stroke:#42B7B4;stroke-linecap:round;stroke-linejoin:round;stroke-miterlimit:10;}
	.st5{display:inline;fill:#2BC1BD;}
	.st6{font-family:'BloggerSans';}
	.st7{font-size:21.0078px;}
	.st8{fill:none;stroke:#41B7B3;stroke-linecap:round;stroke-linejoin:round;stroke-miterlimit:10;}
</style>
<g id="Calque_1" class="st0">
</g>
<g id="Calque_2" class="st0">
	<g id="XMLID_254_" class="st1">
		<path id="XMLID_356_" class="st2" d="M28.4,2.8l24.6,9.8l-24.5,9.7L4.5,12.7L28.4,2.8 M28.4,1.8c-0.1,0-0.3,0-0.4,0.1l-24,9.8
			c-0.4,0.2-0.6,0.5-0.6,0.9c0,0.4,0.2,0.8,0.6,0.9l24.1,9.7c0.1,0,0.2,0.1,0.4,0.1c0.1,0,0.2,0,0.4-0.1l24.5-9.7
			c0.4-0.2,0.6-0.5,0.6-0.9c0-0.4-0.2-0.8-0.6-0.9L28.8,1.9C28.7,1.9,28.6,1.8,28.4,1.8L28.4,1.8z"/>
	</g>
	<path id="XMLID_126_" class="st3" d="M13.2,16.9v8.5c0,0,3.2,6.5,15.3,6.3c0,0,14.1-0.5,15.3-6.5v-8.2"/>
	<polyline id="XMLID_73_" class="st3" points="28.5,12.7 17.5,18.4 17.5,32.6 	"/>
	<circle id="XMLID_72_" class="st3" cx="17.5" cy="35.5" r="2.5"/>
	<path id="XMLID_13_" class="st3" d="M16.2,37.7l-2,7.7c0,0,3.4,3.8,6.6,0l-2.1-7.7"/>
</g>
<g id="Calque_3" class="st0">
	<polyline id="XMLID_346_" class="st4" points="12.6,3.7 28.3,11.5 44,3.6 	"/>
	<polygon id="XMLID_345_" class="st4" points="28.3,16 8.7,7.1 8.7,36.2 28.3,46 	"/>
	<polyline id="XMLID_281_" class="st4" points="28.3,16 47.9,7.1 47.9,36.2 28.3,46 	"/>
</g>
<g id="Calque_4" class="st0">
	<path id="XMLID_351_" class="st4" d="M14.2,12.3c0,0-4.5,4.4-5.1,6.4c0,0-6.1-1.6-6.1,6.7c0,0-0.5,6.4,5.6,6.4h1.6
		c0,0,3.6,4.5,6.1,5.6v6h6.7v-3.7c0,0,7.7,1.5,12.9-0.5v4.3h6.6v-7.8c0,0,8.7-6.6,5.1-16c0,0-6.1-15.1-25.6-10.7
		c0,0,0.9,1.4,1.2,2.1"/>
	<path id="XMLID_350_" class="st4" d="M22.1,8.9c0,0-5.7-5.9-11.7,0.5c0,0,4.3,1.1,4.8,5.5"/>
	<path id="XMLID_349_" class="st4" d="M47.6,19.6c0,0,5.7-4.2,2.5-8.1c0,0-1-1.3-2.5,0.8c0,0-1.3,3.7,2.8,2.5c0,0,2.7-2.2,2.7-6.7"
		/>
	<text id="XMLID_348_" transform="matrix(1 0 0 1 25.0732 33.9893)" class="st5 st6 st7">€</text>
	<circle id="XMLID_347_" class="st5" cx="16.7" cy="20.3" r="1.7"/>
</g>
<g id="Calque_5">
	<path id="XMLID_361_" class="st8" d="M18.2,23.9c1.7,1.7,2.7,4,2.7,6.6c0,5.1-4.1,9.3-9.3,9.3s-9.3-4.1-9.3-9.3s4.1-9.3,9.3-9.3
		c1.5,0,2.9,0.4,4.1,1"/>
	<path id="XMLID_360_" class="st8" d="M44.4,21.2c2.4,0,4.8,0.8,6.6,2.6c3.7,3.6,3.7,9.4,0.2,13.1c-3.6,3.7-9.4,3.7-13.1,0.2
		c-3.7-3.6-3.7-9.4-0.2-13.1c1-1.1,2.3-1.8,3.6-2.3"/>
	<polyline id="XMLID_359_" class="st8" points="11.1,30.5 23.2,15.1 26.2,30.5 41.5,15.1 24.8,15.1 	"/>
	<polyline id="XMLID_355_" class="st8" points="22.8,13.5 22,9.3 26.3,9.3 	"/>
	<line id="XMLID_354_" class="st8" x1="44.5" y1="30.5" x2="42" y2="17.2"/>
	<path id="XMLID_353_" class="st8" d="M41.2,13.5l-0.7-4.2h6.6c0,0,1.4,0.1,1.5,2.1c0,0,0,1.5-1.6,1.7h-2.4"/>
</g>
</svg>
