<?xml version="1.0" encoding="utf-8"?>
<!-- Generator: Adobe Illustrator 19.0.0, SVG Export Plug-In . SVG Version: 6.00 Build 0)  -->
<svg version="1.1" xmlns="http://www.w3.org/2000/svg" xmlns:xlink="http://www.w3.org/1999/xlink" x="0px" y="0px"
	 viewBox="0 0 34.2 24.5" style="enable-background:new 0 0 34.2 24.5;" xml:space="preserve">
<g id="Calque_1">
</g>
<g id="Calque_2">
	<g id="XMLID_254_">
		<path id="XMLID_257_" d="M8.4,4.8c-0.4-0.6-1-1-1.6-1.2c-0.7-0.3-0.7-0.5-0.2-1c1.8-1.8,4.5-2,6.5-0.4c0.3,0.2,0.5,0.2,0.8,0.2
			c4.1-0.8,7.9-0.1,11.3,2.3c1.2,0.9,2.2,2,2.9,3.4c0,0.1,0.1,0.1,0.1,0.2c0.5-0.4,0.9-0.8,1.2-1.3c-0.1,0-0.2,0-0.3,0
			c-1,0-1.7-0.7-1.4-1.7c0.1-0.4,0.4-0.8,0.7-1c0.5-0.3,1.1-0.3,1.5,0.2c0.1,0.1,0.2,0.3,0.4,0.5c0.3-0.5,0.4-1,0.5-1.6
			c0-0.2,0-0.5,0.1-0.7C30.8,2.2,31,2,31.2,2c0.3,0,0.5,0.2,0.5,0.5C31.6,3.8,31.4,5,30.5,6c-0.1,0.1-0.1,0.2-0.1,0.3
			c-0.1,1.1-0.7,2-1.6,2.7c-0.1,0.1-0.2,0.1-0.1,0.3c1,3.3,0,6.1-2.3,8.5c0,0-0.1,0.1-0.1,0.1c-0.6,0.3-0.6,0.8-0.6,1.4
			c0,1.1,0,2.2,0,3.3c0,0.5-0.2,0.6-0.6,0.6c-1.1,0-2.3,0-3.4,0c-0.5,0-0.6-0.2-0.6-0.6c0-0.6,0-1.2,0-1.8c-2.2,0.6-4.3,0.7-6.5,0.3
			c0,0.5,0,1,0,1.5c0,0.5-0.2,0.6-0.6,0.6c-1.1,0-2.3,0-3.4,0c-0.5,0-0.6-0.2-0.6-0.6c0-1,0-1.9,0-2.9c0-0.2,0-0.3-0.2-0.4
			c-1.2-0.7-2.2-1.6-3.1-2.8c-0.1-0.1-0.2-0.1-0.3-0.2c-0.5,0-1.1,0-1.6-0.1C3.1,16,2,14.7,2,13.2c0-0.8-0.1-1.5,0-2.3
			C2.3,9.2,3.6,8.1,5.3,8C5.6,8,5.8,8,5.9,7.7C6.5,6.6,7.3,5.7,8.4,4.8z M8.9,5.6C8.8,5.7,8.7,5.8,8.6,5.8C7.7,6.6,7,7.5,6.4,8.6
			C6.3,8.9,6.2,9,5.9,9C5.6,9,5.4,9,5.1,9C3.9,9.1,3,10,3,11.3c0,0.6,0,1.2,0,1.8c0,1.4,1,2.4,2.4,2.4c0.4,0,0.8,0,1.2,0
			c0.2,0,0.4,0.1,0.5,0.2c0.4,0.4,0.7,0.9,1.1,1.3c0.6,0.7,1.4,1.2,2.2,1.7c0.3,0.2,0.4,0.4,0.4,0.7c0,0.9,0,1.7,0,2.6
			c0,0.1,0,0.2,0,0.3c0.9,0,1.8,0,2.8,0c0-0.5,0-1,0-1.5c0-0.5,0.3-0.7,0.7-0.6c2.3,0.4,4.6,0.3,6.8-0.4c0.6-0.2,0.8,0,0.8,0.6
			c0,0.6,0,1.3,0,1.9c0.9,0,1.9,0,2.8,0c0-1.3,0-2.5,0-3.7c0-0.4,0-0.9,0.5-1c0,0,0.1,0,0.1-0.1c0.5-0.5,1-1,1.4-1.6
			c1.6-2.2,1.9-4.6,0.8-7.1c-0.8-1.8-2.1-3.1-3.7-4c-2.5-1.5-5.2-2-8-1.8c-0.6,0-1.1,0.1-1.7,0.2c0.1,0.3,0.3,0.5,0.4,0.7
			c0.1,0.2,0,0.5-0.2,0.6c-0.2,0.1-0.4,0.1-0.6-0.1c0-0.1-0.1-0.1-0.1-0.2c-0.8-1.5-2.3-2.3-4-2.2c-0.8,0.1-1.4,0.4-2,0.9
			c0,0,0,0,0,0C7.7,3,7.8,3.1,7.8,3.1C8.9,3.8,9.6,4.7,10,6c0.1,0.3,0,0.6-0.3,0.7C9.4,6.7,9.2,6.6,9.1,6.2C9,6,8.9,5.9,8.9,5.6z
			 M29,6c0.3,0,0.5-0.2,0.5-0.5c0-0.2-0.3-0.6-0.5-0.6c-0.2,0-0.5,0.4-0.5,0.7C28.6,5.8,28.7,6,29,6z"/>
		<path id="XMLID_13_" d="M20.2,15.7c0,0,0.1,0.1,0.1,0.1c0.2,0.2,0.3,0.4,0.5,0.6c-1.3,1.3-2.9,1.2-4-0.2c-0.3-0.4-0.5-0.9-0.7-1.3
			c-0.1-0.3-0.2-0.3-0.4-0.3c-0.3,0-0.7,0-1.1,0c0.1-0.3,0.2-0.6,0.4-0.8c0-0.1,0.1-0.1,0.2-0.1c0.2,0,0.4,0,0.7,0
			c0-0.3,0-0.6,0-0.9c-0.4,0-0.7,0-1.1,0c0.1-0.3,0.2-0.6,0.4-0.9c0-0.1,0.2-0.1,0.3-0.1c0.6,0,0.6,0,0.8-0.6
			c0.2-0.6,0.6-1.2,1.1-1.6c0.9-0.8,2.1-0.8,3.1,0c0.1,0.1,0.2,0.2,0.4,0.3c-0.2,0.2-0.4,0.5-0.6,0.7c-0.2-0.1-0.3-0.3-0.5-0.4
			c-0.5-0.4-1-0.4-1.5-0.1c-0.6,0.4-1,1-1.2,1.7c0.4,0,0.8,0,1.2,0c0.4,0,0.7,0,1.2,0c-0.1,0.3-0.2,0.6-0.4,0.8
			c0,0.1-0.2,0.1-0.3,0.1c-0.6,0-1.1,0-1.7,0c-0.2,0-0.3,0-0.3,0.2c0,0.2,0,0.4,0,0.7c0.8,0,1.6,0,2.5,0c-0.1,0.3-0.2,0.6-0.4,0.8
			c0,0.1-0.2,0.1-0.2,0.1c-0.5,0-1.1,0-1.6,0c0.2,0.7,0.5,1.3,1.2,1.7C19.1,16.6,19.7,16.2,20.2,15.7z"/>
		<path id="XMLID_12_" d="M10.4,10.4c-0.5,0-0.9-0.4-0.9-0.9c0-0.5,0.4-0.9,0.9-0.9c0.5,0,0.9,0.4,0.9,0.9
			C11.3,9.9,10.9,10.4,10.4,10.4z"/>
	</g>
</g>
</svg>
