<?xml version="1.0" encoding="utf-8"?>
<!-- Generator: Adobe Illustrator 19.0.0, SVG Export Plug-In . SVG Version: 6.00 Build 0)  -->
<svg version="1.1" xmlns="http://www.w3.org/2000/svg" xmlns:xlink="http://www.w3.org/1999/xlink" x="0px" y="0px"
	 viewBox="0 0 45.9 51.3" style="enable-background:new 0 0 45.9 51.3;" xml:space="preserve">
<g id="Calque_1">
</g>
<g id="Calque_2">
	<g id="XMLID_143_">
		<path id="XMLID_188_" d="M32.8,20.8c1.2-0.3,2.4-0.5,3.6-0.8c2.3-0.5,4.5-1,6.8-1.5c0.7-0.1,1,0.1,1,0.8c0,6.7,0,13.4,0,20.1
			c0,0.6,0.1,1.2,0,1.8C44,43.4,42,45,39.9,44.8c-2.2-0.2-3.9-2-3.9-4.2c0-1.7,0.8-3,2.2-3.8c1.5-0.8,2.9-0.7,4.3,0.2
			c0.1,0.1,0.2,0.1,0.3,0.2c0,0,0,0,0.1,0c0-5.8,0-11.5,0-17.3c-0.6,0.1-1.2,0.2-1.7,0.4c-4.7,1-9.4,2.1-14.1,3.1
			c-0.3,0.1-0.4,0.2-0.4,0.5c0,6.3,0,12.7,0,19c0,0.5,0.1,1,0.1,1.4c0,2.3-1.8,4.2-4.1,4.3c-2.2,0.1-4.2-1.6-4.4-3.9
			c-0.3-2.2,1.3-4.3,3.5-4.7c1.1-0.2,2.2,0,3.1,0.6c0.1,0.1,0.2,0.2,0.4,0.3c0-1.9,0-3.8,0-5.6c-5.9,3.2-11.7,3.1-17.3-0.5
			c-3.7-2.4-5.9-5.9-6.8-10.2C-0.6,16.5,4.8,8,13.1,6.2c4.8-1.1,9.3-0.2,13.3,2.7C30.4,11.8,32.5,15.8,32.8,20.8z M2.1,22.9
			c0,2.7,1.4,6.2,4.1,9c2.6,2.7,5.7,4.2,9.4,4.4c3.3,0.2,6.3-0.4,9.1-2.3c0.3-0.2,0.4-0.4,0.4-0.8c0-3.3,0-6.6,0-9.9
			c0-0.7,0.1-0.8,0.8-1c1.7-0.4,3.4-0.8,5.1-1.1c0.3-0.1,0.4-0.2,0.4-0.5c-0.2-3-1.1-5.8-3.1-8.1c-3.7-4.4-8.5-6.2-14.2-5.2
			C7.2,8.5,2.1,14.7,2.1,22.9z M25.3,44.5c0-1.6-1.3-2.9-2.9-3c-1.6,0-3,1.3-3,2.9c0,1.6,1.3,3,2.9,3C24,47.4,25.3,46.1,25.3,44.5z
			 M43,40.6c0-1.6-1.2-2.9-2.8-2.9c-1.6,0-2.9,1.3-2.9,2.9c0,1.5,1.3,2.8,2.8,2.8C41.7,43.5,43,42.2,43,40.6z"/>
		<path id="XMLID_185_" d="M9.6,21.7c0-3.9,3.2-7.1,7-7.1c4,0,7.2,3.1,7.3,7.1c0,3.9-3.2,7.2-7.1,7.2C12.8,28.9,9.6,25.8,9.6,21.7z
			 M11,21.7c0,3.3,2.6,5.8,5.9,5.8c3.2,0,5.7-2.6,5.7-5.8c0-3.2-2.7-5.7-5.9-5.7C13.5,16,10.9,18.6,11,21.7z"/>
		<path id="XMLID_72_" d="M5.2,21.4c0.1-5.2,4-9.9,9.1-10.9c0.7-0.1,1.5-0.2,2.3-0.3c0.5,0,0.8,0.2,0.8,0.7c0,0.4-0.3,0.7-0.8,0.7
			c-5,0.2-8.9,3.5-9.9,8.3c-0.1,0.6-0.1,1.2-0.2,1.8c0,0.5-0.3,0.7-0.7,0.7c-0.4,0-0.6-0.2-0.7-0.6C5.2,21.6,5.2,21.5,5.2,21.4z"/>
		<path id="XMLID_181_" d="M16.8,18.7c1.7,0,3.1,1.4,3.1,3.1c0,1.7-1.4,3-3,3c-1.7,0-3.1-1.4-3.1-3.1C13.7,20.1,15.1,18.7,16.8,18.7
			z M18.4,21.8c0-0.9-0.8-1.7-1.7-1.7c-0.9,0-1.7,0.8-1.7,1.7c0,0.9,0.8,1.7,1.7,1.7C17.7,23.4,18.5,22.7,18.4,21.8z"/>
	</g>
</g>
</svg>
