<?xml version="1.0" encoding="utf-8"?>
<!-- Generator: Adobe Illustrator 19.0.0, SVG Export Plug-In . SVG Version: 6.00 Build 0)  -->
<svg version="1.1" xmlns="http://www.w3.org/2000/svg" xmlns:xlink="http://www.w3.org/1999/xlink" x="0px" y="0px"
	 viewBox="0 0 45.9 51.3" style="enable-background:new 0 0 45.9 51.3;" xml:space="preserve">
<style type="text/css">
	.st0{fill:none;stroke:#62AD00;stroke-width:2;stroke-linecap:round;stroke-linejoin:round;stroke-miterlimit:10;}
</style>
<g id="Calque_1">
</g>
<g id="Calque_2">
	<g id="XMLID_12_">
		<rect id="XMLID_143_" x="20.1" y="10.6" class="st0" width="12" height="10"/>
		<line id="XMLID_142_" class="st0" x1="26.1" y1="6.6" x2="26.1" y2="10.6"/>
		<line id="XMLID_141_" class="st0" x1="32.1" y1="12.6" x2="42.1" y2="12.6"/>
		<line id="XMLID_140_" class="st0" x1="32.1" y1="18.6" x2="42.1" y2="18.6"/>
		<path id="XMLID_139_" class="st0" d="M20.1,12.6h-6c-3.3,0-6,2.7-6,6v4"/>
		<path id="XMLID_126_" class="st0" d="M20.1,18.6h-4c-1.1,0-2,0.9-2,2v2"/>
		<path id="XMLID_74_" class="st0" d="M18.1,41.6c0,3.9-3.1,7-7,7c-3.9,0-7-3.1-7-7s7-15,7-15S18.1,37.8,18.1,41.6z"/>
		<line id="XMLID_73_" class="st0" x1="6.1" y1="22.6" x2="16.1" y2="22.6"/>
		<path id="XMLID_72_" class="st0" d="M14.1,41.6c0,1.7-1.3,3-3,3"/>
		<rect id="XMLID_13_" x="20.1" y="2.6" class="st0" width="12" height="4"/>
	</g>
</g>
</svg>
