<?xml version="1.0" encoding="utf-8"?>
<!-- Generator: Adobe Illustrator 19.0.0, SVG Export Plug-In . SVG Version: 6.00 Build 0)  -->
<svg version="1.1" xmlns="http://www.w3.org/2000/svg" xmlns:xlink="http://www.w3.org/1999/xlink" x="0px" y="0px"
	 viewBox="0 0 34.2 31.8" style="enable-background:new 0 0 34.2 31.8;" xml:space="preserve">
<g id="Calque_1">
</g>
<g id="Calque_2">
	<g id="XMLID_314_">
		<path id="XMLID_331_" d="M24.9,25c0.6-0.7,1.2-1.4,1.8-2.1c0.3-0.3,0.4-0.4,0.8-0.2c2.2,1.2,3.4,3.1,4,5.4c0,0.2,0.1,0.3,0.1,0.5
			c0.2,1-0.4,1.7-1.4,1.7c-0.8,0-1.6,0-2.4,0c-2.7,0-5.4,0-8.2,0c-0.2,0-0.4,0-0.6-0.1c-0.6-0.2-1.1-0.8-0.9-1.5
			c0.4-2.5,1.6-4.5,3.8-5.9c0.8-0.5,0.8-0.5,1.4,0.2C23.9,23.7,24.4,24.3,24.9,25z M22.2,29.4c1.8,0,3.6,0,5.5,0c0-0.1,0-0.2,0-0.3
			c0-0.5,0-1.1,0-1.6c0-0.3,0.2-0.5,0.4-0.5c0.3,0,0.4,0.2,0.4,0.5c0,0.5,0,1.1,0,1.6c0,0.1,0,0.2,0,0.4c0.5,0,1,0,1.5,0
			c0.7,0,0.7-0.1,0.6-0.7c-0.2-1.3-0.8-2.5-1.6-3.5c-0.5-0.6-1.1-1.2-1.9-1.6c-0.6,0.8-1.3,1.5-1.9,2.3c-0.3,0.3-0.5,0.3-0.8,0
			c-0.5-0.6-1-1.1-1.4-1.7c-0.2-0.2-0.3-0.4-0.5-0.6c0,0-0.1,0-0.1,0c-2,1.2-3,3.1-3.5,5.3c0,0.3,0.1,0.4,0.4,0.4c0.6,0,1.2,0,1.8,0
			c0-0.1,0-0.2,0-0.3c0-0.5,0-1.1,0-1.6c0-0.2,0.1-0.4,0.2-0.5c0.3-0.2,0.7,0,0.7,0.4C22.2,28.1,22.2,28.7,22.2,29.4z"/>
		<path id="XMLID_328_" d="M17.5,9.8c0.6-0.7,1.2-1.4,1.8-2.1c0.3-0.3,0.4-0.4,0.8-0.1c2.2,1.2,3.4,3.1,4,5.5
			c0.1,0.3,0.1,0.5,0.1,0.8c0,0.7-0.5,1.3-1.3,1.3c-3.6,0-7.2,0-10.8,0c-0.9,0-1.4-0.7-1.3-1.6c0.5-2.6,1.8-4.7,4.1-6
			c0.4-0.2,0.5-0.2,0.8,0.1c0.5,0.6,1,1.2,1.5,1.8C17.3,9.6,17.4,9.7,17.5,9.8z M21.1,14.2c0.6,0,1.1,0,1.7,0c0.4,0,0.5-0.2,0.5-0.6
			c-0.2-1.4-0.8-2.7-1.8-3.8c-0.5-0.6-1.1-1.1-1.7-1.4c-0.1,0.1-0.1,0.1-0.2,0.2c-0.6,0.7-1.2,1.4-1.8,2.1c-0.2,0.3-0.5,0.3-0.7,0
			c-0.1-0.1-0.1-0.1-0.2-0.2c-0.6-0.7-1.2-1.4-1.8-2.1c0,0-0.1,0-0.1,0c-2,1.2-3,3.1-3.4,5.3c0,0.2,0.1,0.4,0.3,0.4
			c0.6,0,1.3,0,1.9,0c0-0.7,0-1.3,0-1.9c0-0.4,0.2-0.5,0.4-0.5c0.3,0,0.4,0.2,0.4,0.5c0,0.4,0,0.8,0,1.3c0,0.2,0,0.4,0,0.7
			c1.8,0,3.6,0,5.4,0c0-0.1,0-0.2,0-0.3c0-0.6,0-1.1,0-1.7c0-0.4,0.3-0.6,0.6-0.5c0.2,0.1,0.3,0.3,0.3,0.5
			C21.1,12.9,21.1,13.5,21.1,14.2z"/>
		<path id="XMLID_325_" d="M10,25c0.6-0.7,1.2-1.4,1.8-2.1c0.3-0.4,0.4-0.4,0.8-0.2c1.9,1.1,3.1,2.7,3.8,4.7
			c0.1,0.4,0.2,0.8,0.3,1.2c0.2,1-0.4,1.7-1.4,1.7c-2.4,0-4.8,0-7.2,0c-1.2,0-2.3,0-3.5,0c-0.9,0-1.5-0.7-1.4-1.6
			c0.5-2.6,1.8-4.7,4.2-6c0.4-0.2,0.5-0.2,0.8,0.2C8.8,23.6,9.4,24.3,10,25z M7.7,23.6C7.7,23.6,7.7,23.6,7.7,23.6
			c-2.1,1.2-3.1,3-3.6,5.3c-0.1,0.3,0.1,0.5,0.3,0.5c0.6,0,1.2,0,1.9,0c0-0.1,0-0.3,0-0.4c0-0.5,0-1.1,0-1.6c0-0.3,0.2-0.5,0.4-0.5
			c0.2,0,0.4,0.2,0.4,0.4c0,0.1,0,0.2,0,0.3c0,0.6,0,1.1,0,1.7c1.8,0,3.6,0,5.4,0c0-0.6,0-1.2,0-1.8c0-0.6,0.1-0.7,0.4-0.7
			c0.3,0,0.5,0.2,0.5,0.7c0,0.3,0,0.6,0,0.8c0,0.3,0,0.6,0,0.9c0.6,0,1.1,0,1.7,0c0.4,0,0.6-0.2,0.5-0.6c-0.2-1.3-0.7-2.4-1.5-3.5
			c-0.5-0.7-1.2-1.3-2-1.7c-0.1,0.1-0.1,0.1-0.2,0.2c-0.6,0.7-1.1,1.3-1.7,2c-0.3,0.4-0.5,0.4-0.9,0C8.9,25.1,8.3,24.4,7.7,23.6z"/>
		<path id="XMLID_322_" d="M22.3,19.8c0-1.5,1.2-2.7,2.7-2.6c1.5,0,2.6,1.2,2.6,2.7c0,1.5-1.2,2.7-2.7,2.7
			C23.5,22.5,22.3,21.3,22.3,19.8z M24.9,21.6c1,0,1.8-0.8,1.8-1.8c0-1-0.8-1.8-1.8-1.8c-0.9,0-1.8,0.8-1.8,1.7
			C23.2,20.8,24,21.6,24.9,21.6z"/>
		<path id="XMLID_319_" d="M12.6,19.8c0,1.5-1.2,2.7-2.6,2.7c-1.5,0-2.7-1.2-2.7-2.7c0-1.5,1.2-2.7,2.7-2.7
			C11.4,17.2,12.6,18.3,12.6,19.8z M10,21.6c1,0,1.8-0.8,1.8-1.8c0-1-0.8-1.8-1.8-1.8c-1,0-1.8,0.8-1.8,1.8C8.2,20.8,9,21.6,10,21.6
			z"/>
		<path id="XMLID_316_" d="M17.5,2c1.5,0,2.6,1.2,2.6,2.7c0,1.5-1.2,2.7-2.7,2.7c-1.5,0-2.6-1.2-2.6-2.7C14.8,3.1,16,1.9,17.5,2z
			 M17.5,6.4c1,0,1.8-0.8,1.8-1.7c0-1-0.8-1.8-1.8-1.8c-1,0-1.8,0.8-1.8,1.8C15.7,5.6,16.5,6.4,17.5,6.4z"/>
		<path id="XMLID_12_" d="M17.9,17.7c0,0.3,0,0.7,0,1c0,0.2,0.1,0.3,0.2,0.4c0.9,0.5,1.7,1,2.6,1.5c0.3,0.2,0.4,0.4,0.3,0.6
			c-0.1,0.3-0.4,0.3-0.7,0.2c-0.9-0.5-1.8-1-2.6-1.5c-0.2-0.1-0.3-0.1-0.5,0c-0.9,0.5-1.8,1-2.6,1.5c-0.3,0.2-0.5,0.1-0.7-0.1
			c-0.2-0.2-0.1-0.5,0.3-0.7c0.8-0.5,1.7-0.9,2.5-1.4c0.3-0.1,0.4-0.3,0.4-0.6c0-0.6,0-1.3,0-1.9c0-0.3,0.2-0.5,0.4-0.5
			c0.3,0,0.5,0.2,0.5,0.5C17.9,16.9,17.9,17.3,17.9,17.7z"/>
	</g>
</g>
</svg>
