<?xml version="1.0" encoding="utf-8"?>
<!-- Generator: Adobe Illustrator 19.0.0, SVG Export Plug-In . SVG Version: 6.00 Build 0)  -->
<svg version="1.1" xmlns="http://www.w3.org/2000/svg" xmlns:xlink="http://www.w3.org/1999/xlink" x="0px" y="0px"
	 viewBox="0 0 45 50.3" style="enable-background:new 0 0 45 50.3;" xml:space="preserve">
<style type="text/css">
	.st0{fill:none;stroke:#62AD00;stroke-width:2;stroke-linecap:round;stroke-linejoin:round;stroke-miterlimit:10;}
</style>
<g id="Calque_1">
</g>
<g id="Calque_2">
	<g>
		<circle class="st0" cx="22.1" cy="26" r="4"/>
		<g>
			<path id="XMLID_9_" class="st0" d="M21.2,22.1L17.8,6.5c-0.5-2.1,0.9-4,3-4.2c2.1-0.2,4.3,1.5,4.8,3.6l1.1,4.7
				c0.5,2.1-0.5,5-2.2,6.4l-3.8,3.1"/>
		</g>
		<g>
			<path id="XMLID_11_" class="st0" d="M19.2,28.7L7.3,39.5C5.7,41,3.4,40.7,2.2,39c-1.2-1.8-0.9-4.5,0.7-6l3.5-3.4
				c1.6-1.5,4.6-2.1,6.6-1.3l4.6,1.8"/>
		</g>
		<g>
			<path id="XMLID_13_" class="st0" d="M25.9,27.2L41.2,32c2.1,0.7,3,2.8,2.1,4.7c-0.9,1.9-3.4,3-5.5,2.4l-4.7-1.4
				c-2.1-0.6-4.1-2.9-4.5-5.1l-0.8-4.9"/>
		</g>
		<line class="st0" x1="24.1" y1="29.5" x2="24.1" y2="48"/>
		<line class="st0" x1="20.1" y1="29.5" x2="20.1" y2="48"/>
	</g>
</g>
</svg>
