<?xml version="1.0" encoding="utf-8"?>
<!-- Generator: Adobe Illustrator 19.0.0, SVG Export Plug-In . SVG Version: 6.00 Build 0)  -->
<svg version="1.1" xmlns="http://www.w3.org/2000/svg" xmlns:xlink="http://www.w3.org/1999/xlink" x="0px" y="0px"
	 viewBox="0 0 33.2 31.7" style="enable-background:new 0 0 33.2 31.7;" xml:space="preserve">
<g id="Calque_1">
</g>
<g id="Calque_2">
	<g id="XMLID_126_">
		<path id="XMLID_242_" d="M4.3,13.8c0-2.9,0-5.9,0-8.8c0-0.6,0.3-0.8,0.8-0.5C8.9,6.2,12.7,8,16.5,9.7c0.1,0,0.3,0,0.4,0
			c3.8-1.7,7.6-3.5,11.4-5.2c0.1,0,0.2-0.1,0.3-0.1c0.3-0.1,0.5,0.2,0.5,0.5c0,1.2,0,2.3,0,3.5c0,4.7,0,9.4,0,14.2
			c0,0.4-0.1,0.6-0.4,0.7c-3.8,1.9-7.6,3.8-11.4,5.7c-0.4,0.2-0.7,0.2-1.1,0c-3.8-1.9-7.6-3.8-11.4-5.7c-0.3-0.2-0.5-0.4-0.5-0.8
			C4.3,19.6,4.3,16.7,4.3,13.8z M17.2,28c0.1,0,0.1-0.1,0.2-0.1c3.6-1.8,7.1-3.6,10.7-5.3c0.2-0.1,0.2-0.2,0.2-0.4
			c0-5.5,0-10.9,0-16.4c0-0.1,0-0.2,0-0.3c-0.1,0-0.2,0.1-0.3,0.1c-3.5,1.6-7,3.2-10.4,4.8c-0.2,0.1-0.3,0.2-0.3,0.5c0,4,0,8,0,12.1
			C17.2,24.7,17.2,26.3,17.2,28z M5.2,5.5c0,0.1,0,0.2,0,0.3c0,5.5,0,10.9,0,16.4c0,0.2,0.1,0.3,0.3,0.4c3.5,1.7,7,3.5,10.5,5.2
			c0.1,0,0.2,0.1,0.3,0.1c0-0.1,0-0.2,0-0.2c0-5.6,0-11.3,0-16.9c0-0.2-0.1-0.3-0.3-0.4C12.6,8.9,9.1,7.3,5.7,5.7
			C5.5,5.7,5.4,5.6,5.2,5.5z"/>
		<path id="XMLID_12_" d="M16.7,8.1c-0.1,0-0.2-0.1-0.3-0.1c-3-1.5-6-3-9-4.5C7.1,3.3,7,3,7.1,2.8c0.1-0.3,0.4-0.3,0.7-0.1
			c2.9,1.4,5.7,2.9,8.6,4.3C16.6,7,16.8,7,17,6.9c2.8-1.4,5.7-2.8,8.5-4.3c0.1,0,0.2-0.1,0.3-0.1c0.2-0.1,0.4,0,0.5,0.2
			c0.1,0.2,0.1,0.4-0.1,0.6C26.1,3.4,26,3.4,26,3.5c-3,1.5-5.9,3-8.9,4.4C17,8,16.8,8,16.7,8.1z"/>
	</g>
</g>
</svg>
