<?xml version="1.0" encoding="utf-8"?>
<!-- Generator: Adobe Illustrator 19.0.0, SVG Export Plug-In . SVG Version: 6.00 Build 0)  -->
<svg version="1.1" xmlns="http://www.w3.org/2000/svg" xmlns:xlink="http://www.w3.org/1999/xlink" x="0px" y="0px"
	 viewBox="0 0 50.6 46.1" style="enable-background:new 0 0 50.6 46.1;" xml:space="preserve">
<style type="text/css">
	.st0{fill:none;stroke:#62AD00;stroke-width:2;stroke-linecap:round;stroke-linejoin:round;stroke-miterlimit:10;}
</style>
<g id="Calque_1">
</g>
<g id="Calque_2">
	<g id="XMLID_10_">
		<path id="XMLID_126_" class="st0" d="M17.3,39.4c-3.5,3.1-8,3-15,3C7.5,36.8-7.8,9.9,17.8,13.1C23.9,18.7,22,35.4,17.3,39.4z"/>
		<polyline id="XMLID_74_" class="st0" points="9.4,27.8 12.6,26.5 14.4,30.1 		"/>
		<polyline id="XMLID_73_" class="st0" points="8.9,22.3 12.9,20.4 15.7,25 		"/>
		<path id="XMLID_72_" class="st0" d="M33.3,39.4c3.5,3.1,8,3,15,3c-5.2-5.7,10.1-32.5-15.5-29.3C26.7,18.7,28.7,35.4,33.3,39.4z"/>
		<polyline id="XMLID_13_" class="st0" points="41.2,27.8 38,26.5 36.3,30.1 		"/>
		<polyline id="XMLID_12_" class="st0" points="41.7,22.3 37.7,20.4 34.9,25 		"/>
		<path id="XMLID_11_" class="st0" d="M40.3,31.4c-6.4-6.2,3.6-19-13-19c0,0-2-2-2-10c0,8-2,10-2,10c-16.6,0-6.6,12.8-13,19"/>
	</g>
</g>
</svg>
