<?xml version="1.0" encoding="utf-8"?>
<!-- Generator: Adobe Illustrator 19.0.0, SVG Export Plug-In . SVG Version: 6.00 Build 0)  -->
<svg version="1.1" xmlns="http://www.w3.org/2000/svg" xmlns:xlink="http://www.w3.org/1999/xlink" x="0px" y="0px"
	 viewBox="0 0 45.9 40.8" style="enable-background:new 0 0 45.9 40.8;" xml:space="preserve">
<g id="Calque_1">
</g>
<g id="Calque_2">
	<g id="XMLID_183_">
		<path id="XMLID_193_" d="M23.2,2.2c0.4,0.3,0.5,0.6,0.4,1.1c-0.4,1.6-0.7,3.2-0.6,4.8c0,0.7,0.1,1.4,0.3,2.1
			c0.4,1.7,1.4,2.8,2.9,3.6c1.4,0.8,3,1.2,4.6,1.6c2.2,0.6,4.4,1.1,6.6,1.7c0.8,0.2,1.6,0.6,2.3,1c1.6,0.8,2.5,2.2,2.7,4
			c0.2,1.8,0.1,3.5-0.4,5.2c0,0.2-0.1,0.4-0.2,0.5c-0.2,0.6-0.4,0.7-1.1,0.7c-11,0-22.1,0-33.1,0c-0.4,0-0.6,0.1-0.8,0.4
			c-1.1,1.4-2.3,2.7-3.5,4.1c-0.5,0.6-0.9,0.6-1.4,0c0-0.2,0-0.3,0-0.5c1.4-1.7,2.9-3.4,4.3-5c0.2-0.2,0.5-0.3,0.8-0.3
			c3.6,0,7.3,0,10.9,0c7.4,0,14.8,0,22.1,0c0.2,0,0.4,0,0.5-0.3c0.4-1.6,0.5-3.3,0.2-4.9c-0.2-1-0.7-1.7-1.4-2.3
			c-0.8-0.6-1.8-1-2.9-1.3c-0.2,0.8-0.5,1.6-0.6,2.5c-0.2,1.4-0.4,2.8-0.5,4.2c-0.1,0.5-0.3,0.8-0.7,0.8c-0.4,0-0.7-0.3-0.7-0.9
			c0.1-2.2,0.5-4.4,1-6.5c0-0.2,0.1-0.3,0.1-0.5c-1.1-0.3-2.2-0.6-3.3-0.8c-1.2-0.3-2.3-0.6-3.5-0.9c-0.2-0.1-0.3,0-0.4,0.2
			c-0.5,0.8-1,1.7-1.5,2.5c-0.5,0.8-1.2,1-2.1,0.5c-0.4-0.2-0.7-0.4-1.1-0.6c-0.7-0.4-0.9-1.2-0.5-1.9c0.5-0.9,1-1.7,1.5-2.5
			c-0.2-0.4-0.5-0.4-0.8-0.2c-0.7,0.4-1.4,0.8-2,1.2c-0.8,0.5-1.6,0.3-2.1-0.5c-0.2-0.4-0.4-0.7-0.6-1.1c-0.4-0.7-0.2-1.5,0.5-1.9
			c0.7-0.4,1.4-0.8,2.1-1.2c0.4-0.3,0.4-0.3,0.3-0.8c-0.9,0-1.8,0-2.6,0c-1.1,0-1.7-0.5-1.7-1.7c0-0.4,0-0.7,0-1.1
			c0-0.8,0.6-1.4,1.4-1.4c1,0,1.9,0,2.9,0c0.1-0.7,0.2-1.3,0.4-2c-0.6,0.1-1.3,0.1-1.9,0.2c-0.2,0-0.4,0-0.6,0.1
			c-0.5,0-0.8-0.2-0.8-0.6c0-0.4,0.2-0.7,0.7-0.8c0.6-0.1,1.2-0.1,1.8-0.2c0.4,0,0.8-0.1,1.2-0.2C22.7,2.2,22.9,2.2,23.2,2.2z
			 M25.3,18.3c0.5-0.9,1-1.8,1.5-2.6c-0.4-0.2-0.8-0.4-1.3-0.6c-0.5,0.8-1,1.7-1.5,2.5C24.5,17.9,24.9,18.1,25.3,18.3z M18.8,7.1
			c0,0.5,0,0.9,0,1.3c0.9,0,1.8,0,2.7,0c0-0.5,0-0.9,0-1.3C20.6,7.1,19.7,7.1,18.8,7.1z M20.7,14.2c0.8-0.4,1.5-0.9,2.3-1.3
			c-0.2-0.4-0.5-0.8-0.7-1.2c-0.8,0.4-1.5,0.9-2.2,1.3C20.2,13.4,20.5,13.8,20.7,14.2z"/>
		<path id="XMLID_188_" d="M39.1,38.3c-0.6-0.3-1.3-0.5-1.9-0.8c-0.4-0.2-0.4-0.7-0.2-1c0.2-0.3,0.6-0.4,0.9-0.2
			c0.1,0,0.1,0.1,0.2,0.1c1.4,0.9,3.3,0.4,4.1-1.1c0.7-1.4,0-3.1-1.4-3.8c-1.4-0.6-3.1,0.1-3.7,1.5c0,0.1,0,0.2-0.1,0.3
			c0.8,0,1.6,0,2.4,0c0.2,0,0.3,0,0.5,0.1c0.3,0.1,0.5,0.4,0.5,0.7c0,0.3-0.2,0.5-0.6,0.6c-0.1,0-0.2,0-0.4,0c-10.8,0-21.5,0-32.3,0
			c-0.7,0-1-0.3-0.9-1c0.2-2,1.8-3.7,3.7-3.8c2.1-0.2,3.9,1.1,4.5,3.2c0.1,0.2,0.2,0.3,0.4,0.3c0.4,0,0.8,0.1,1,0
			c0.2-0.1,0.3-0.6,0.4-0.9c0.7-1.7,2.3-2.6,4.2-2.5c1.7,0.1,3.2,1.4,3.6,3c0,0.1,0.1,0.2,0.1,0.4c0.5,0,1,0,1.5,0
			c0-0.1,0.1-0.2,0.1-0.3c0.5-1.9,2.1-3.1,4-3.1c1.9,0,3.6,1.2,4.1,3.1c0.1,0.3,0.2,0.4,0.5,0.4c0.3,0,0.7,0.1,1,0
			c0.2-0.1,0.3-0.6,0.4-0.8c0.7-1.7,2.4-2.7,4.3-2.6c1.7,0.2,3.2,1.5,3.6,3.3c0,0.1,0.1,0.2,0.1,0.3c0,0.4,0,0.8,0,1.1
			c-0.4,2-1.6,3.2-3.6,3.6C39.9,38.3,39.5,38.3,39.1,38.3z M17.5,33.4c1.8,0,3.5,0,5.3,0c-0.2-1.1-1.3-2-2.5-2
			C19,31.4,17.8,32.2,17.5,33.4z M32.6,33.5c-0.4-1.4-1.6-2.2-3-2c-1.1,0.1-2.2,1.1-2.3,2C29,33.5,30.8,33.5,32.6,33.5z M13,33.5
			c-0.4-1.4-1.6-2.2-3-2c-1.1,0.1-2.2,1.1-2.2,2C9.5,33.5,11.3,33.5,13,33.5z"/>
		<path id="XMLID_73_" d="M19.6,38.3c-0.6-0.2-1.2-0.5-1.8-0.7c-0.5-0.2-0.5-0.7-0.3-1c0.2-0.3,0.6-0.4,1.1-0.1c1,0.7,2.1,0.7,3.1,0
			c0.5-0.3,0.9-0.2,1.1,0.1c0.2,0.4,0.1,0.8-0.3,1c-0.6,0.3-1.2,0.5-1.7,0.7C20.4,38.3,20,38.3,19.6,38.3z"/>
		<path id="XMLID_72_" d="M9.8,38.3c-0.6-0.2-1.2-0.4-1.7-0.7c-0.5-0.2-0.6-0.7-0.3-1c0.2-0.4,0.6-0.4,1.1-0.1c1,0.6,2,0.6,3.1,0
			c0,0,0.1-0.1,0.1-0.1c0.4-0.2,0.8-0.1,1,0.2c0.2,0.3,0.1,0.8-0.2,1c-0.5,0.3-1.1,0.5-1.6,0.7c-0.1,0-0.2,0.1-0.3,0.1
			C10.5,38.3,10.2,38.3,9.8,38.3z"/>
		<path id="XMLID_13_" d="M29.3,38.3c-0.6-0.2-1.2-0.4-1.7-0.7c-0.5-0.3-0.6-0.7-0.3-1c0.2-0.4,0.6-0.4,1.1-0.1c1,0.6,2.1,0.6,3.1,0
			c0.5-0.3,0.9-0.2,1.1,0.1c0.2,0.4,0.1,0.8-0.4,1c-0.6,0.3-1.2,0.5-1.8,0.7C30.1,38.3,29.7,38.3,29.3,38.3z"/>
		<path id="XMLID_12_" d="M14.6,4.3c-0.6,0-1.1,0.1-1.6,0.1C10.4,4.6,7.8,5,5.3,5.9C4.9,6,4.8,6.2,4.8,6.6c0,5.6,0,11.2,0,16.8
			c0,0.7,0.1,1.4,0.6,2c0.2,0.3,0.1,0.7-0.1,0.9c-0.3,0.2-0.7,0.3-0.9,0c-0.3-0.4-0.6-0.9-0.8-1.4c-0.1-0.4-0.2-0.9-0.2-1.4
			c0-5.9,0-11.8,0-17.7c0-0.6,0.1-0.7,0.6-1c2.5-1,5.2-1.6,7.9-1.9c1-0.1,2-0.1,2.9-0.2c0.9,0,1.1,0.2,1.1,1c0,1.3,0,2.6,0,3.9
			c0.1,5.9,2.9,10.2,8.1,12.9c0.7,0.4,1.5,0.6,2.2,0.9c1.2,0.6,3.5-0.5,3.6-2.4c0-0.1,0-0.3,0-0.4c0.1-0.4,0.4-0.7,0.8-0.6
			c0.4,0,0.6,0.3,0.6,0.7c0.1,1.7-1.1,3.4-2.8,4c-0.9,0.3-1.7,0.4-2.6,0.1c-5.3-1.9-9-5.3-10.7-10.7c-0.5-1.5-0.6-3.1-0.6-4.8
			c0-0.9,0-1.8,0-2.7C14.6,4.6,14.6,4.5,14.6,4.3z"/>
	</g>
</g>
</svg>
