<?xml version="1.0" encoding="utf-8"?>
<!-- Generator: Adobe Illustrator 19.0.0, SVG Export Plug-In . SVG Version: 6.00 Build 0)  -->
<svg version="1.1" xmlns="http://www.w3.org/2000/svg" xmlns:xlink="http://www.w3.org/1999/xlink" x="0px" y="0px"
	 viewBox="0 0 34.2 31.8" style="enable-background:new 0 0 34.2 31.8;" xml:space="preserve">
<g id="Calque_1">
</g>
<g id="Calque_2">
	<g id="XMLID_254_">
		<path id="XMLID_281_" d="M17.1,5.6c1-0.9,2.2-1.5,3.5-1.8c5.8-1.5,11.4,3.2,10.9,9.1c-0.2,2-0.9,3.8-2.3,5.3
			c-0.3,0.3-0.6,0.5-0.8,0.8c-3,3-5.9,5.9-8.9,8.9c-0.2,0.2-0.3,0.4-0.5,0.5c-0.8,0.8-1.8,1-2.9,0.6c-1.1-0.4-1.7-1.2-1.9-2.3
			c0-0.2,0-0.3-0.3-0.4c-1.3-0.1-2.4-1.2-2.5-2.6c0,0,0-0.1,0-0.1c-1.7-0.2-2.7-1.1-2.8-2.8c-0.6,0-1.2-0.2-1.7-0.6
			c-0.5-0.4-0.8-0.8-1-1.4c-0.4,0.1-0.7-0.2-1-0.5c-2.2-2.5-2.9-5.4-1.9-8.6c1-3.2,3.2-5.2,6.5-5.9C12.1,3.2,14.9,3.7,17.1,5.6z
			 M16.6,13.9c-0.1,0.1-0.1,0.1-0.2,0.1c-1.9,1.9-3.8,3.8-5.7,5.7c-0.1,0.1-0.1,0.1-0.2,0.2c-0.5,0.6-0.3,1.4,0.3,1.8
			c0.5,0.3,1.1,0.2,1.6-0.3c2-2,4.1-4.1,6.1-6.1c0.1-0.1,0.2-0.2,0.3-0.2c0.3-0.2,0.6-0.2,0.9,0c0.3,0.2,0.4,0.5,0.3,0.8
			c-0.1,0.2-0.2,0.3-0.3,0.5c-2.1,2.1-4.1,4.1-6.2,6.2c-0.1,0.1-0.2,0.2-0.3,0.4c-0.3,0.4-0.3,1.1,0.1,1.5c0.3,0.4,1,0.6,1.5,0.3
			c0.3-0.2,0.6-0.5,0.9-0.7c2-2,4-3.9,6-5.9c0.4-0.4,0.8-0.4,1.1-0.1c0.3,0.3,0.3,0.8-0.1,1.1c-2.2,2.2-4.4,4.4-6.6,6.6
			c-0.1,0.1-0.1,0.2-0.2,0.2c-0.3,0.7,0.1,1.4,0.8,1.6c0.6,0.2,1,0,1.5-0.4c3.2-3.2,6.4-6.5,9.7-9.7c1.3-1.3,2-2.8,2.2-4.7
			c0.4-4.8-3.9-8.6-8.6-7.7c-1.2,0.2-2.2,0.7-3.2,1.5c0.1,0.1,0.2,0.2,0.3,0.2c0.8,0.7,1.5,1.4,2.2,2.2c1.3,1.4,1.2,3.5-0.2,4.7
			C19.5,14.6,18,14.9,16.6,13.9z M5.9,17c0.4-0.5,0.7-0.9,1.2-1.4c1.7-1.8,3.5-3.5,5.3-5.3c0.1-0.1,0.2-0.1,0.3-0.2
			c-0.6-0.6-1.1-1.1-1.6-1.6c-0.4-0.4-0.4-0.8,0-1.1c0.3-0.3,0.8-0.3,1.1,0c1.7,1.7,3.4,3.4,5,5.1c0.5,0.5,1.3,0.7,1.9,0.4
			c1.1-0.5,1.3-1.8,0.5-2.7C18.5,9.1,17.4,8,16.3,7c-1.8-1.6-3.9-2.2-6.3-1.7c-4.4,0.9-6.9,5.3-5.4,9.5C4.9,15.6,5.4,16.3,5.9,17z
			 M13.7,11.2c-0.1,0.1-0.1,0.1-0.2,0.1c-1.9,1.9-3.8,3.8-5.7,5.7c-0.1,0.1-0.2,0.2-0.2,0.2c-0.3,0.4-0.3,1,0,1.5
			c0.5,0.6,1.3,0.6,1.9,0c1.9-1.9,3.8-3.8,5.7-5.7c0.1-0.1,0.1-0.1,0.1-0.2C14.8,12.3,14.3,11.7,13.7,11.2z"/>
	</g>
</g>
</svg>
