<?xml version="1.0" encoding="utf-8"?>
<!-- Generator: Adobe Illustrator 19.0.0, SVG Export Plug-In . SVG Version: 6.00 Build 0)  -->
<svg version="1.1" xmlns="http://www.w3.org/2000/svg" xmlns:xlink="http://www.w3.org/1999/xlink" x="0px" y="0px"
	 viewBox="0 0 47 31.7" style="enable-background:new 0 0 47 31.7;" xml:space="preserve">
<g id="Calque_1">
</g>
<g id="Calque_2">
	<g id="XMLID_140_">
		<path id="XMLID_126_" d="M33.1,8.9c-2.1,0-4.2,0-6.3,0c-1.8,0-3.6,0-5.5,0c-0.2,0-0.3,0-0.5,0c-0.4,0-0.6-0.3-0.6-0.6
			c0-0.3,0.2-0.5,0.6-0.5c0.6,0,1.1,0,1.7,0c4,0,8,0,11.9,0c0.3,0,0.7,0,0.8,0.4c0.1,0.4-0.1,0.6-0.3,0.8
			c-4.2,4.2-8.4,8.4-12.6,12.6c-0.2,0.2-0.6,0.4-0.8,0.3c-0.2-0.1-0.4-0.4-0.5-0.7c-0.7-3.6-1.4-7.2-2.1-10.8c0-0.2-0.1-0.3-0.1-0.6
			c-0.2,0.2-0.3,0.3-0.4,0.5c-2.8,3.7-5.7,7.4-8.5,11.1c-0.1,0.1-0.1,0.1-0.2,0.2c-0.3,0.4-0.7,0.5-1,0.2c-0.3-0.3-0.2-0.6,0-0.9
			c1.6-2.1,3.2-4.2,4.8-6.2c1.6-2.1,3.2-4.2,4.9-6.4c0.2-0.3,0.4-0.6,0.9-0.5c0.4,0.1,0.5,0.5,0.5,0.8c0.7,3.7,1.4,7.4,2.2,11.1
			c0,0.1,0,0.2,0.1,0.2C25.8,16.3,29.4,12.6,33.1,8.9z"/>
		<path id="XMLID_74_" d="M1.1,21.3c0-5.9,6.1-10,11.6-7.7c0,0,0.1,0,0.1,0.1c0.4,0.2,0.7,0.4,0.5,0.9c-0.2,0.4-0.5,0.4-0.9,0.3
			c-0.7-0.2-1.3-0.4-2-0.5c-3.7-0.5-7.2,2.1-7.9,5.7c-0.8,4.2,2.1,8,6.3,8.5c2.8,0.3,5.7-1.2,7.1-3.7c1.4-2.5,1.1-5.7-0.8-7.9
			c-0.1-0.1-0.2-0.2-0.3-0.3c-0.3-0.3-0.3-0.7,0-0.9c0.3-0.3,0.7-0.2,0.9,0.1c0.6,0.8,1.2,1.7,1.6,2.6c2.3,5.8-2.3,11.8-8.5,11.4
			C4.5,29.3,1.1,25.7,1.1,21.3z"/>
		<path id="XMLID_73_" d="M45.6,20.9c0,5.4-4.2,9.2-9.1,8.8c-3.8-0.3-6.9-3.2-7.6-7.1c-0.6-3.7,1.4-7.4,4.9-8.9
			c0.5-0.2,0.9-0.1,1,0.2c0.1,0.4,0,0.7-0.5,0.9c-2.8,1.3-4.5,4.2-4.2,7.1c0.3,3.2,2.5,5.7,5.6,6.4c3.8,0.9,7.9-1.7,8.6-5.6
			c0.7-4.1-2-7.9-6-8.4c-0.3,0-0.6-0.1-0.9-0.1c-0.4,0-0.7-0.1-0.8-0.6c0-0.4,0.3-0.6,0.8-0.6c1.9,0.1,3.6,0.7,5.1,1.9
			C44.6,16.6,45.6,18.7,45.6,20.9z"/>
		<path id="XMLID_72_" d="M34.6,4.1C34.7,5,34.9,5.9,35,6.7c0.1,0.4,0,0.7-0.5,0.8c-0.4,0.1-0.6-0.2-0.7-0.6
			c-0.2-1.1-0.4-2.2-0.6-3.2c-0.1-0.4,0.2-0.7,0.6-0.7c1.8,0,3.6,0,5.3,0c1.1,0,2,1.1,2,2.2c0,1.2-0.9,2.1-2.1,2.2
			c-0.6,0-1.1,0-1.7,0c-0.4,0-0.7-0.2-0.7-0.6c0-0.4,0.3-0.6,0.7-0.6c0.5,0,1,0,1.5,0c0.6,0,1.1-0.5,1.1-1c0-0.6-0.4-1-1.1-1
			C37.5,4.1,36.1,4.1,34.6,4.1z"/>
		<path id="XMLID_13_" d="M38,21.4c-0.2,0.2-0.4,0.4-0.6,0.5c-0.4,0.1-0.6-0.2-0.7-0.5c-0.2-1.1-0.4-2.1-0.6-3.2
			c-0.5-2.6-1-5.1-1.5-7.7c-0.1-0.5,0-0.9,0.4-0.9c0.4-0.1,0.7,0.2,0.8,0.7c0.7,3.6,1.4,7.2,2.1,10.8c0,0.1,0,0.2,0,0.3
			C37.9,21.3,37.9,21.4,38,21.4z"/>
		<path id="XMLID_12_" d="M19,4.1c0.1,0.8,0.3,1.5,0.4,2.2c0,0.1,0.1,0.3,0.1,0.4C19.4,7,19.2,7.3,19,7.4c-0.2,0-0.6-0.2-0.6-0.4
			c-0.3-1.1-0.5-2.3-0.7-3.4c-0.1-0.4,0.2-0.6,0.6-0.6c1.2,0,2.4,0,3.6,0c0.4,0,0.6,0.2,0.6,0.6c0,0.4-0.3,0.6-0.6,0.6
			c-0.7,0-1.5,0-2.2,0C19.5,4.1,19.3,4.1,19,4.1z"/>
	</g>
</g>
</svg>
