<?xml version="1.0" encoding="utf-8"?>
<!-- Generator: Adobe Illustrator 19.0.0, SVG Export Plug-In . SVG Version: 6.00 Build 0)  -->
<svg version="1.1" xmlns="http://www.w3.org/2000/svg" xmlns:xlink="http://www.w3.org/1999/xlink" x="0px" y="0px"
	 viewBox="0 0 33.2 31.7" style="enable-background:new 0 0 33.2 31.7;" xml:space="preserve">
<style type="text/css">
	.st0{fill:#FFFFFF;}
</style>
<g id="Calque_1">
</g>
<g id="Calque_2">
	<g id="XMLID_256_">
		<path id="XMLID_258_" d="M23.4,29.5c0-1.2,0-2.4,0-3.6c0-1.7,0-3.4,0-5.1c0-0.1,0-0.2,0-0.3c-5.2,0-10.3,0-15.4,0
			c0,0.1,0,0.2,0,0.2c0,2.9,0,5.7,0,8.6c0,0.1,0,0.1,0,0.2c-0.3,0-0.6,0-0.8,0c0-2.8,0-5.5,0-8.3c0-0.2,0-0.5,0-0.8
			c-0.5,0-1,0-1.5,0c0-0.1,0-0.2,0-0.3c0-0.9,0-1.9,0-2.8c0-0.1,0.1-0.3,0.2-0.3c1.1-0.9,2.2-1.8,3.4-2.6c0.1-0.1,0.2-0.1,0.4-0.1
			c0.7,0,1.4,0,2.1,0c0.2,0,0.3-0.1,0.4-0.2c1.2-1.8,2.3-3.5,3.5-5.3c0.1-0.1,0.1-0.2,0.2-0.3c0.2,0.1,0.4,0.2,0.6,0.3
			c0.2-0.3,0.3-0.6,0.5-0.9c0.4-0.7,0.8-1.4,1.2-2.1c0.3-0.5,0.7-1,1.2-1.3c0.5-0.4,1.1-0.5,1.8-0.3c1.1,0.3,2.2,0.5,3.4,0.4
			c0.2,0,0.3,0,0.6,0c-0.2-0.3-0.3-0.5-0.5-0.8c0.3-0.1,0.5-0.3,0.8-0.4c0.5-0.3,1-0.6,1.5-0.9c0.1,0,0.1,0,0.2,0
			c0.1,0.2,0.2,0.4,0.4,0.7c-0.6,0.3-1.1,0.6-1.7,1c1,1.7,1.9,3.3,2.9,5c0.6-0.3,1.2-0.7,1.8-1c0.1,0.2,0.3,0.5,0.4,0.7
			c-0.8,0.5-1.6,0.9-2.5,1.4C28,10,27.9,9.8,27.7,9.6c-0.1,0.1-0.2,0.1-0.3,0.2c-0.7,0.5-1.5,1-2.2,1.5c-0.6,0.4-1.3,0.6-2,0.5
			c-0.5,0-1.1,0-1.6,0.2c0.3,0.2,0.6,0.3,0.8,0.5c-0.4,0.6-0.7,1.1-1,1.7c0,0,0.1,0,0.1,0c0.4-0.1,0.7,0.2,1,0.4c1,0.8,2,1.6,3,2.3
			c0.1,0.1,0.2,0.2,0.2,0.4c0,1,0,2,0,3c-0.5,0-1,0-1.5,0c0,0.1,0,0.1,0,0.2c0,2.9,0,5.8,0,8.7c0,0,0,0.1,0,0.1
			C23.9,29.5,23.7,29.5,23.4,29.5z M27.3,8.9c-0.7-1.1-1.3-2.2-1.9-3.3c0-0.1-0.2-0.1-0.2-0.1c-1.5,0.2-3,0-4.4-0.4
			c-0.4-0.1-0.8,0-1.1,0.2c-0.3,0.3-0.7,0.6-0.9,1c-0.5,0.8-1,1.7-1.5,2.5C17.2,9,17.1,9.1,17,9.3c0.3,0.2,0.6,0.4,0.9,0.6
			c0,0,0.1,0.1,0.1,0c0.3-0.1,0.5-0.2,0.7-0.5C19,9,19.2,8.6,19.5,8.3c0.6-0.7,1.7-0.6,2.3,0.1c0.3,0.4,0.3,0.6-0.2,0.9
			c-1.2,0.5-2.4,1.1-3.6,1.6c-0.4,0.2-0.7,0.6-0.5,1c0.1,0.5,0.6,0.7,1.1,0.5c0.9-0.4,1.8-0.7,2.7-1.1c0.5-0.2,1-0.3,1.5-0.3
			c0.3,0,0.5,0,0.8,0c0.5,0,0.9-0.2,1.2-0.5c0.3-0.2,0.5-0.4,0.8-0.6C26.2,9.6,26.7,9.2,27.3,8.9z M6.4,19.6c6.2,0,12.3,0,18.5,0
			c0-0.5,0-0.9,0-1.4c0-0.2-0.1-0.3-0.3-0.3c-6,0-11.9,0-17.9,0c-0.1,0-0.2,0-0.3,0C6.4,18.5,6.4,19.1,6.4,19.6z M16,9.6
			c-1.3,2-2.6,4-3.9,6c0.1,0,0.1,0,0.1,0c2.4,0,4.9,0,7.3,0c0.1,0,0.2-0.1,0.3-0.2c0.4-0.6,0.7-1.2,1.1-1.7c0.2-0.3,0.3-0.6,0.5-0.9
			c-0.2-0.1-0.3-0.2-0.4-0.2c-0.2-0.1-0.3-0.1-0.6,0c-0.5,0.2-1.1,0.4-1.6,0.6c-1.1,0.4-2.2-0.4-2.2-1.5c0-0.5,0.2-0.9,0.6-1.3
			C16.8,10.1,16.4,9.9,16,9.6z M11.3,15.1c-0.5,0-1,0-1.5,0c-0.1,0-0.3,0.1-0.4,0.1c-0.8,0.6-1.5,1.2-2.2,1.8
			c-0.1,0-0.1,0.1-0.2,0.2c5.8,0,11.6,0,17.4,0c-0.1-0.1-0.1-0.1-0.2-0.2c-0.7-0.6-1.5-1.1-2.2-1.7c-0.3-0.2-0.7-0.1-1-0.1
			c-0.1,0-0.2,0.3-0.4,0.5c0.2,0,0.4,0,0.6,0c0,0.1,0,0.2,0,0.3c0,0.2,0,0.3,0,0.5c-3.7,0-7.3,0-11,0c0-0.3,0-0.5,0-0.8
			C10.7,15.6,11.2,15.8,11.3,15.1z M20.9,8.7c-0.5-0.2-0.7,0-1,0.5C20.2,9,20.5,8.8,20.9,8.7z"/>
		<path id="XMLID_12_" class="st0" d="M20.9,8.7c-0.3,0.2-0.7,0.3-1,0.5C20.1,8.7,20.4,8.5,20.9,8.7z"/>
	</g>
</g>
</svg>
